<svg xmlns="http://www.w3.org/2000/svg" xmlns:xlink="http://www.w3.org/1999/xlink" width="500" zoomAndPan="magnify" viewBox="0 0 375 374.999991" height="500" preserveAspectRatio="xMidYMid meet" version="1.0"><defs><g/><clipPath id="34ccfb3ccd"><path d="M 117 90.515625 L 258 90.515625 L 258 163 L 117 163 Z M 117 90.515625 " clip-rule="nonzero"/></clipPath><clipPath id="4d9e36459c"><path d="M 129 179 L 246 179 L 246 243.515625 L 129 243.515625 Z M 129 179 " clip-rule="nonzero"/></clipPath><clipPath id="a5645618cc"><path d="M 190.503906 146.675781 L 204.015625 146.675781 L 204.015625 160.191406 L 190.503906 160.191406 Z M 190.503906 146.675781 " clip-rule="nonzero"/></clipPath><clipPath id="15a10c779e"><path d="M 170.984375 146.675781 L 184.496094 146.675781 L 184.496094 160.191406 L 170.984375 160.191406 Z M 170.984375 146.675781 " clip-rule="nonzero"/></clipPath><clipPath id="f19d09fc97"><path d="M 190.503906 166.40625 L 204.015625 166.40625 L 204.015625 179.917969 L 190.503906 179.917969 Z M 190.503906 166.40625 " clip-rule="nonzero"/></clipPath><clipPath id="38af529355"><path d="M 170.984375 166.40625 L 184.496094 166.40625 L 184.496094 179.917969 L 170.984375 179.917969 Z M 170.984375 166.40625 " clip-rule="nonzero"/></clipPath></defs><g clip-path="url(#34ccfb3ccd)"><path fill="#000000" d="M 256.917969 157.246094 L 189.78125 91.835938 C 188.492188 90.582031 186.4375 90.582031 185.148438 91.835938 L 118.011719 157.246094 C 116.695312 158.527344 116.667969 160.632812 117.945312 161.949219 C 119.226562 163.269531 121.332031 163.292969 122.644531 162.015625 L 187.464844 98.859375 L 252.289062 162.015625 C 252.933594 162.640625 253.769531 162.957031 254.605469 162.957031 C 255.46875 162.957031 256.335938 162.621094 256.988281 161.949219 C 258.261719 160.632812 258.234375 158.527344 256.917969 157.246094 Z M 256.917969 157.246094 " fill-opacity="1" fill-rule="nonzero"/></g><g clip-path="url(#4d9e36459c)"><path fill="#000000" d="M 242.304688 179.03125 C 240.472656 179.03125 238.984375 180.523438 238.984375 182.359375 L 238.984375 230.832031 C 238.984375 234.191406 236.253906 236.925781 232.898438 236.925781 L 142.03125 236.925781 C 138.675781 236.925781 135.945312 234.191406 135.945312 230.832031 L 135.945312 182.359375 C 135.945312 180.523438 134.457031 179.03125 132.621094 179.03125 C 130.789062 179.03125 129.300781 180.523438 129.300781 182.359375 L 129.300781 230.832031 C 129.300781 237.859375 135.011719 243.578125 142.03125 243.578125 L 232.894531 243.578125 C 239.917969 243.578125 245.625 237.859375 245.625 230.832031 L 245.625 182.359375 C 245.628906 180.523438 244.140625 179.03125 242.304688 179.03125 Z M 242.304688 179.03125 " fill-opacity="1" fill-rule="nonzero"/></g><path stroke-linecap="round" transform="matrix(0.75, 0, 0, 0.75, 137.282998, 102.488211)" fill="none" stroke-linejoin="miter" d="M 3.99767 4.000094 L 26.544546 4.000094 " stroke="#000000" stroke-width="8" stroke-opacity="1" stroke-miterlimit="4"/><path stroke-linecap="round" transform="matrix(0, -0.75, 0.75, 0, 155.23391, 126.070422)" fill="none" stroke-linejoin="miter" d="M 4.000146 4.000621 L 26.489731 4.000621 " stroke="#000000" stroke-width="8" stroke-opacity="1" stroke-miterlimit="4"/><path stroke-linecap="round" transform="matrix(0, -0.75, 0.75, 0, 137.703922, 141.880375)" fill="none" stroke-linejoin="miter" d="M 4.001959 3.998938 L 47.56967 3.998938 " stroke="#000000" stroke-width="8" stroke-opacity="1" stroke-miterlimit="4"/><g clip-path="url(#a5645618cc)"><path fill="#000000" d="M 190.503906 146.675781 L 204.015625 146.675781 L 204.015625 160.191406 L 190.503906 160.191406 Z M 190.503906 146.675781 " fill-opacity="1" fill-rule="nonzero"/></g><g clip-path="url(#15a10c779e)"><path fill="#000000" d="M 170.984375 146.675781 L 184.496094 146.675781 L 184.496094 160.191406 L 170.984375 160.191406 Z M 170.984375 146.675781 " fill-opacity="1" fill-rule="nonzero"/></g><g clip-path="url(#f19d09fc97)"><path fill="#000000" d="M 190.503906 166.40625 L 204.015625 166.40625 L 204.015625 179.917969 L 190.503906 179.917969 Z M 190.503906 166.40625 " fill-opacity="1" fill-rule="nonzero"/></g><g clip-path="url(#38af529355)"><path fill="#000000" d="M 170.984375 166.40625 L 184.496094 166.40625 L 184.496094 179.917969 L 170.984375 179.917969 Z M 170.984375 166.40625 " fill-opacity="1" fill-rule="nonzero"/></g><g fill="#000000" fill-opacity="1"><g transform="translate(5.990875, 296.132364)"><g><path d="M 4.136719 0 L 9.84375 0 L 9.84375 -34.945312 L 4.136719 -34.945312 Z M 4.136719 0 "/></g></g></g><g fill="#000000" fill-opacity="1"><g transform="translate(24.612495, 296.132364)"><g><path d="M 28.945312 -34.945312 L 28.945312 -9.027344 L 9.550781 -34.945312 L 3.84375 -34.945312 L 3.84375 0 L 9.550781 0 L 9.550781 -25.976562 L 28.886719 0 L 34.59375 0 L 34.59375 -34.945312 Z M 28.945312 -34.945312 "/></g></g></g><g fill="#000000" fill-opacity="1"><g transform="translate(67.746514, 296.132364)"><g><path d="M 28.945312 -34.945312 L 28.945312 -9.027344 L 9.550781 -34.945312 L 3.84375 -34.945312 L 3.84375 0 L 9.550781 0 L 9.550781 -25.976562 L 28.886719 0 L 34.59375 0 L 34.59375 -34.945312 Z M 28.945312 -34.945312 "/></g></g></g><g fill="#000000" fill-opacity="1"><g transform="translate(110.880532, 296.132364)"><g><path d="M 20.441406 0.464844 C 30.34375 0.464844 38.378906 -7.570312 38.378906 -17.472656 C 38.378906 -27.371094 30.34375 -35.410156 20.441406 -35.410156 C 10.542969 -35.410156 2.503906 -27.371094 2.503906 -17.472656 C 2.503906 -7.570312 10.542969 0.464844 20.441406 0.464844 Z M 20.441406 -5.183594 C 13.570312 -5.183594 8.152344 -10.542969 8.152344 -17.472656 C 8.152344 -24.402344 13.570312 -29.761719 20.441406 -29.761719 C 27.371094 -29.761719 32.730469 -24.402344 32.730469 -17.472656 C 32.730469 -10.542969 27.371094 -5.183594 20.441406 -5.183594 Z M 20.441406 -5.183594 "/></g></g></g><g fill="#000000" fill-opacity="1"><g transform="translate(156.45997, 296.132364)"><g><path d="M 24.867188 -34.945312 L 15.433594 -7.222656 L 5.941406 -34.945312 L -0.40625 -34.945312 L 12.230469 0 L 18.578125 0 L 31.214844 -34.945312 Z M 24.867188 -34.945312 "/></g></g></g><g fill="#000000" fill-opacity="1"><g transform="translate(191.966616, 296.132364)"><g><path d="M 25.042969 0 L 31.214844 0 L 18.578125 -34.945312 L 12.230469 -34.945312 L -0.40625 0 L 5.765625 0 L 8.269531 -7.394531 L 22.539062 -7.394531 Z M 9.957031 -12.40625 L 15.433594 -28.710938 L 20.90625 -12.40625 Z M 9.957031 -12.40625 "/></g></g></g><g fill="#000000" fill-opacity="1"><g transform="translate(227.473261, 296.132364)"><g/></g></g><g fill="#000000" fill-opacity="1"><g transform="translate(246.153114, 296.132364)"><g><path d="M 13.570312 0.464844 C 19.859375 0.464844 24.984375 -3.261719 24.984375 -9.550781 C 24.984375 -21.957031 8.445312 -18.929688 8.445312 -26.089844 C 8.445312 -28.828125 10.601562 -30.109375 13.164062 -30.109375 C 15.492188 -30.109375 17.589844 -29.0625 19.160156 -27.082031 L 23.179688 -30.75 C 20.964844 -33.488281 17.296875 -35.410156 13.164062 -35.410156 C 7.6875 -35.410156 2.738281 -31.972656 2.738281 -25.683594 C 2.738281 -14.09375 19.277344 -16.949219 19.277344 -9.550781 C 19.277344 -6.699219 16.890625 -5.007812 13.628906 -5.007812 C 10.074219 -5.007812 7.394531 -6.988281 6.171875 -9.957031 L 1.28125 -6.988281 C 3.320312 -2.621094 7.980469 0.464844 13.570312 0.464844 Z M 13.570312 0.464844 "/></g></g></g><g fill="#000000" fill-opacity="1"><g transform="translate(277.292944, 296.132364)"><g><path d="M 24.285156 -34.945312 L 0.117188 -34.945312 L 0.117188 -29.644531 L 9.375 -29.644531 L 9.375 0 L 15.027344 0 L 15.027344 -29.644531 L 24.285156 -29.644531 Z M 24.285156 -34.945312 "/></g></g></g><g fill="#000000" fill-opacity="1"><g transform="translate(306.394915, 296.132364)"><g><path d="M 25.042969 0 L 31.214844 0 L 18.578125 -34.945312 L 12.230469 -34.945312 L -0.40625 0 L 5.765625 0 L 8.269531 -7.394531 L 22.539062 -7.394531 Z M 9.957031 -12.40625 L 15.433594 -28.710938 L 20.90625 -12.40625 Z M 9.957031 -12.40625 "/></g></g></g><g fill="#000000" fill-opacity="1"><g transform="translate(341.90156, 296.132364)"><g><path d="M 29.761719 -34.945312 L 23.179688 -34.945312 L 14.734375 -21.78125 L 6.347656 -34.945312 L -0.347656 -34.945312 L 11.882812 -16.421875 L 11.882812 0 L 17.589844 0 L 17.589844 -16.539062 Z M 29.761719 -34.945312 "/></g></g></g></svg>