<svg xmlns="http://www.w3.org/2000/svg" xmlns:xlink="http://www.w3.org/1999/xlink" width="500" zoomAndPan="magnify" viewBox="0 0 375 374.999991" height="500" preserveAspectRatio="xMidYMid meet" version="1.0"><defs><g/><clipPath id="31e808928f"><path d="M 15.703125 40 L 211 40 L 211 375 L 15.703125 375 Z M 15.703125 40 " clip-rule="nonzero"/></clipPath><clipPath id="d5c7534e33"><path d="M 202 71 L 359.203125 71 L 359.203125 284 L 202 284 Z M 202 71 " clip-rule="nonzero"/></clipPath></defs><g clip-path="url(#31e808928f)"><path fill="#000000" d="M 42.554688 374.777344 C 42.070312 374.777344 41.75 374.695312 41.425781 374.695312 C 38.371094 374.132812 34.835938 371.71875 25.109375 349.125 C 20.285156 337.867188 16.105469 326.691406 16.023438 326.53125 C 15.703125 325.566406 15.703125 324.519531 16.105469 323.636719 L 22.777344 307.152344 C 23.097656 306.347656 23.742188 305.621094 24.464844 305.222656 L 42.792969 294.527344 L 34.433594 265.578125 C 33.953125 263.96875 34.515625 262.28125 35.878906 261.238281 L 56.136719 245.957031 L 44.320312 220.871094 C 43.597656 219.261719 43.917969 217.414062 45.207031 216.207031 L 60.960938 201.332031 L 69.722656 176.886719 C 54.609375 163.457031 46.410156 144.320312 46.652344 122.769531 C 46.972656 97.199219 58.871094 72.835938 78.488281 57.558594 C 92.472656 46.621094 110.320312 40.507812 128.570312 40.269531 C 146.976562 40.109375 164.742188 45.816406 178.570312 56.59375 C 191.273438 66.402344 201.160156 80.3125 206.464844 95.832031 C 212.253906 112.796875 212.332031 130.648438 206.707031 147.292969 C 205.984375 149.386719 203.730469 150.511719 201.640625 149.789062 C 199.550781 149.0625 198.425781 146.8125 199.148438 144.722656 C 210.644531 110.949219 194.003906 78.625 173.746094 62.945312 C 148.265625 43.242188 109.4375 43.644531 83.46875 63.910156 C 66.027344 77.5 55.011719 100.09375 54.773438 122.929688 C 54.53125 143.113281 62.488281 160.722656 77.039062 172.625 C 78.324219 173.667969 78.886719 175.519531 78.246094 177.128906 L 68.195312 205.109375 C 67.957031 205.671875 67.632812 206.234375 67.152344 206.636719 L 52.761719 220.066406 L 64.738281 245.476562 C 65.542969 247.164062 65.0625 249.253906 63.535156 250.382812 L 42.875 265.980469 L 51.316406 295.332031 C 51.796875 297.097656 51.074219 299.027344 49.464844 299.914062 L 29.691406 311.414062 L 24.144531 325.164062 C 30.734375 342.851562 39.5 362.632812 43.195312 366.574219 C 45.847656 365.691406 53.246094 361.429688 63.695312 353.386719 C 75.03125 344.621094 81.460938 338.109375 82.105469 336.421875 C 84.355469 329.90625 130.175781 202.457031 132.105469 197.070312 C 132.589844 195.621094 133.953125 194.574219 135.480469 194.414062 C 160.320312 191.761719 179.777344 180.261719 191.59375 161.285156 C 192.800781 159.4375 195.210938 158.792969 197.140625 160 C 198.988281 161.207031 199.632812 163.617188 198.425781 165.546875 C 185.644531 186.132812 165.066406 198.757812 138.859375 202.132812 C 132.425781 219.90625 91.75 333.042969 89.660156 339.074219 C 87.652344 344.863281 72.378906 356.84375 67.792969 360.300781 C 50.992188 373.167969 44.964844 374.777344 42.554688 374.777344 Z M 42.554688 366.734375 Z M 42.554688 366.734375 " fill-opacity="1" fill-rule="nonzero"/></g><path fill="#000000" d="M 53.808594 341.003906 C 53.324219 341.003906 52.921875 340.921875 52.441406 340.761719 C 50.351562 340.039062 49.226562 337.707031 49.949219 335.617188 L 101.238281 189.992188 C 101.960938 187.902344 104.292969 186.777344 106.382812 187.5 C 108.472656 188.222656 109.597656 190.554688 108.875 192.644531 L 57.585938 338.269531 C 57.023438 339.957031 55.496094 341.003906 53.808594 341.003906 Z M 53.808594 341.003906 " fill-opacity="1" fill-rule="nonzero"/><path fill="#000000" d="M 136.929688 118.265625 C 136.847656 118.265625 136.6875 118.265625 136.605469 118.265625 C 128.003906 117.542969 120.769531 112.636719 116.75 104.917969 C 112.570312 96.878906 112.730469 87.226562 117.074219 79.75 C 123.746094 68.492188 139.179688 63.988281 150.835938 69.859375 C 158.875 74.121094 163.859375 81.035156 164.824219 89.480469 C 165.789062 97.84375 162.652344 106.367188 156.542969 111.753906 C 154.855469 113.199219 152.363281 113.039062 150.835938 111.433594 C 149.390625 109.742188 149.550781 107.25 151.15625 105.722656 C 155.339844 102.023438 157.507812 96.152344 156.785156 90.363281 C 156.0625 84.65625 152.605469 79.832031 147.058594 76.9375 C 139.261719 72.996094 128.40625 76.132812 123.90625 83.769531 C 120.929688 88.757812 120.929688 95.589844 123.746094 101.140625 C 125.351562 104.195312 129.210938 109.421875 137.171875 110.144531 C 139.421875 110.304688 141.027344 112.316406 140.867188 114.488281 C 140.707031 116.738281 138.9375 118.265625 136.929688 118.265625 Z M 136.929688 118.265625 " fill-opacity="1" fill-rule="nonzero"/><path fill="#000000" d="M 288.460938 79.992188 C 286.210938 79.992188 284.441406 78.222656 284.441406 75.972656 C 284.441406 52.894531 269.488281 31.261719 244.410156 18.074219 C 210.726562 1.109375 164.339844 14.699219 145.128906 47.183594 C 144.003906 49.113281 141.511719 49.757812 139.664062 48.632812 C 137.734375 47.503906 137.089844 45.011719 138.214844 43.164062 C 148.425781 25.875 166.191406 12.445312 187.089844 6.335938 C 207.910156 0.222656 230.179688 1.914062 248.105469 11 C 275.921875 25.632812 292.5625 49.917969 292.5625 76.050781 C 292.480469 78.140625 290.632812 79.992188 288.460938 79.992188 Z M 288.460938 79.992188 " fill-opacity="1" fill-rule="nonzero"/><path fill="#000000" d="M 209.199219 168.523438 C 192.398438 168.523438 176.160156 163.777344 163.136719 154.933594 C 137.734375 137.644531 123.746094 104.355469 128.246094 72.109375 C 128.570312 69.941406 130.578125 68.414062 132.75 68.652344 C 134.917969 68.976562 136.445312 70.984375 136.207031 73.15625 C 132.105469 102.425781 144.808594 132.578125 167.71875 148.179688 C 198.910156 169.488281 246.738281 162.011719 269.972656 132.257812 C 276.324219 124.136719 280.179688 116.578125 282.835938 107.007812 C 283.398438 104.839844 285.648438 103.632812 287.738281 104.195312 C 289.910156 104.757812 291.113281 107.007812 290.550781 109.101562 C 287.65625 119.632812 283.234375 128.316406 276.324219 137.242188 C 263.941406 153.085938 244.570312 164.101562 223.105469 167.398438 C 218.363281 168.121094 213.78125 168.523438 209.199219 168.523438 Z M 209.199219 168.523438 " fill-opacity="1" fill-rule="nonzero"/><path fill="#000000" d="M 271.5 79.1875 C 269.570312 79.1875 267.800781 77.738281 267.558594 75.730469 C 265.710938 63.265625 258.71875 45.898438 236.289062 34.078125 C 212.09375 21.855469 179.214844 30.054688 163.136719 52.492188 C 161.847656 54.261719 159.355469 54.742188 157.507812 53.375 C 155.738281 52.089844 155.257812 49.597656 156.625 47.746094 C 174.953125 22.257812 212.332031 12.847656 240.066406 26.839844 C 265.550781 40.269531 273.429688 60.128906 275.597656 74.441406 C 275.921875 76.613281 274.394531 78.703125 272.222656 79.027344 C 271.902344 79.1875 271.660156 79.1875 271.5 79.1875 Z M 271.5 79.1875 " fill-opacity="1" fill-rule="nonzero"/><path fill="#000000" d="M 209.4375 150.671875 C 196.253906 150.671875 183.472656 146.972656 173.265625 139.976562 C 152.765625 125.984375 141.832031 99.289062 146.09375 73.398438 C 146.414062 71.226562 148.503906 69.699219 150.675781 70.101562 C 152.847656 70.421875 154.375 72.511719 153.972656 74.683594 C 150.273438 97.117188 160.082031 121.242188 177.765625 133.304688 C 201.5625 149.546875 237.976562 143.835938 255.742188 121.160156 C 260.484375 115.128906 263.863281 108.136719 265.953125 100.414062 C 266.515625 98.246094 268.765625 96.957031 270.855469 97.601562 C 273.027344 98.164062 274.3125 100.414062 273.667969 102.507812 C 271.339844 111.269531 267.398438 119.230469 262.011719 126.148438 C 252.285156 138.609375 237.09375 147.214844 220.210938 149.867188 C 216.675781 150.429688 213.058594 150.671875 209.4375 150.671875 Z M 209.4375 150.671875 " fill-opacity="1" fill-rule="nonzero"/><path fill="#000000" d="M 268.847656 150.027344 C 266.433594 150.027344 264.023438 149.707031 261.691406 148.984375 C 259.601562 148.339844 258.394531 146.089844 259.039062 143.996094 C 259.683594 141.90625 261.933594 140.699219 264.023438 141.34375 C 272.785156 143.996094 283.558594 138.769531 286.691406 130.328125 C 288.863281 124.378906 288.78125 118.992188 286.53125 114.328125 C 284.363281 109.984375 280.101562 106.527344 275.195312 105.078125 C 268.285156 102.988281 260.566406 105.5625 255.503906 111.59375 C 250.597656 117.460938 249.632812 124.941406 252.929688 131.613281 C 253.894531 133.625 253.089844 136.039062 251.160156 137.003906 C 249.152344 137.96875 246.738281 137.164062 245.773438 135.234375 C 241.03125 125.746094 242.480469 114.730469 249.390625 106.445312 C 256.546875 98.003906 267.558594 94.464844 277.527344 97.441406 C 284.601562 99.613281 290.550781 104.4375 293.6875 110.789062 C 296.019531 115.371094 297.945312 122.929688 294.25 133.140625 C 290.550781 143.195312 279.699219 150.027344 268.847656 150.027344 Z M 268.847656 150.027344 " fill-opacity="1" fill-rule="nonzero"/><g clip-path="url(#d5c7534e33)"><path fill="#000000" d="M 219.246094 283.992188 C 217.15625 283.992188 215.46875 282.382812 215.226562 280.292969 L 205.179688 164.824219 C 205.019531 162.574219 206.625 160.644531 208.796875 160.480469 C 210.964844 160.320312 212.976562 161.929688 213.136719 164.101562 L 222.863281 275.550781 L 350.683594 264.453125 L 335.488281 110.707031 L 301.402344 79.265625 L 240.226562 82.5625 L 209.601562 116.980469 C 208.152344 118.667969 205.582031 118.75 203.890625 117.300781 C 202.203125 115.855469 202.125 113.28125 203.570312 111.59375 L 235.324219 75.972656 C 236.046875 75.167969 237.011719 74.683594 238.136719 74.605469 L 302.691406 71.144531 C 303.816406 71.066406 304.859375 71.46875 305.664062 72.191406 L 342.082031 105.882812 C 342.804688 106.527344 343.285156 107.492188 343.367188 108.457031 L 359.121094 267.75 C 359.203125 268.792969 358.882812 269.921875 358.238281 270.726562 C 357.515625 271.527344 356.550781 272.089844 355.503906 272.171875 L 219.648438 283.992188 C 219.488281 283.992188 219.40625 283.992188 219.246094 283.992188 Z M 219.246094 283.992188 " fill-opacity="1" fill-rule="nonzero"/></g><path fill="#000000" d="M 216.753906 257.941406 C 216.273438 257.941406 215.710938 257.699219 215.308594 257.296875 C 214.503906 256.492188 214.585938 255.207031 215.308594 254.480469 L 235.644531 234.621094 C 236.449219 233.816406 237.734375 233.898438 238.460938 234.621094 C 239.261719 235.425781 239.183594 236.710938 238.460938 237.433594 L 218.121094 257.296875 C 217.71875 257.699219 217.238281 257.941406 216.753906 257.941406 Z M 216.753906 257.941406 " fill-opacity="1" fill-rule="nonzero"/><path fill="#000000" d="M 219.808594 278.363281 C 219.246094 278.363281 218.765625 278.121094 218.363281 277.71875 C 217.558594 276.917969 217.640625 275.628906 218.441406 274.90625 L 242.15625 252.070312 C 242.960938 251.265625 244.246094 251.347656 244.972656 252.148438 C 245.773438 252.953125 245.695312 254.242188 244.890625 254.964844 L 221.175781 277.800781 C 220.773438 278.121094 220.292969 278.363281 219.808594 278.363281 Z M 219.808594 278.363281 " fill-opacity="1" fill-rule="nonzero"/><path fill="#000000" d="M 242.480469 279.410156 C 241.996094 279.410156 241.433594 279.167969 241.03125 278.847656 C 240.226562 278.042969 240.226562 276.753906 241.03125 276.03125 L 253.171875 264.132812 C 253.972656 263.328125 255.261719 263.328125 255.984375 264.132812 C 256.789062 264.933594 256.789062 266.222656 255.984375 266.945312 L 243.84375 278.847656 C 243.523438 279.25 243.042969 279.410156 242.480469 279.410156 Z M 242.480469 279.410156 " fill-opacity="1" fill-rule="nonzero"/><path fill="#000000" d="M 329.136719 178.414062 C 328.09375 178.414062 327.207031 177.609375 327.128906 176.484375 L 326.324219 161.445312 C 326.242188 160.320312 327.128906 159.355469 328.253906 159.355469 C 329.378906 159.277344 330.34375 160.160156 330.34375 161.285156 L 331.148438 176.324219 C 331.226562 177.449219 330.34375 178.414062 329.21875 178.414062 C 329.21875 178.414062 329.21875 178.414062 329.136719 178.414062 Z M 329.136719 178.414062 " fill-opacity="1" fill-rule="nonzero"/><path fill="#000000" d="M 80.335938 88.59375 C 80.335938 88.59375 80.253906 88.59375 80.253906 88.59375 C 79.128906 88.515625 78.324219 87.628906 78.324219 86.503906 C 78.566406 82.082031 80.496094 77.902344 83.710938 74.84375 C 84.515625 74.039062 85.800781 74.121094 86.523438 74.925781 C 87.328125 75.730469 87.25 77.015625 86.445312 77.738281 C 84.035156 80.070312 82.507812 83.367188 82.34375 86.664062 C 82.265625 87.792969 81.378906 88.59375 80.335938 88.59375 Z M 80.335938 88.59375 " fill-opacity="1" fill-rule="nonzero"/><path fill="#000000" d="M 22.132812 329.90625 C 21.570312 329.90625 20.929688 329.664062 20.527344 329.101562 C 19.882812 328.21875 19.964844 326.933594 20.847656 326.289062 L 33.148438 316.71875 C 34.03125 316.078125 35.316406 316.15625 35.960938 317.042969 C 36.605469 317.925781 36.523438 319.210938 35.640625 319.855469 L 23.339844 329.425781 C 22.9375 329.746094 22.535156 329.90625 22.132812 329.90625 Z M 22.132812 329.90625 " fill-opacity="1" fill-rule="nonzero"/><path fill="#000000" d="M 26.234375 339.476562 C 25.589844 339.476562 25.027344 339.152344 24.625 338.671875 C 23.984375 337.785156 24.222656 336.5 25.109375 335.855469 L 34.675781 329.023438 C 35.558594 328.378906 36.84375 328.621094 37.488281 329.503906 C 38.132812 330.390625 37.890625 331.675781 37.007812 332.320312 L 27.359375 339.074219 C 27.039062 339.316406 26.636719 339.476562 26.234375 339.476562 Z M 26.234375 339.476562 " fill-opacity="1" fill-rule="nonzero"/><path fill="#000000" d="M 32.34375 352.503906 C 32.023438 352.503906 31.699219 352.421875 31.378906 352.261719 C 30.414062 351.699219 30.09375 350.492188 30.65625 349.527344 C 32.425781 346.390625 35.15625 343.898438 38.453125 342.53125 C 39.5 342.050781 40.625 342.53125 41.105469 343.578125 C 41.589844 344.621094 41.105469 345.746094 40.0625 346.230469 C 37.570312 347.277344 35.480469 349.207031 34.191406 351.539062 C 33.710938 352.101562 33.066406 352.503906 32.34375 352.503906 Z M 32.34375 352.503906 " fill-opacity="1" fill-rule="nonzero"/><path fill="#000000" d="M 132.023438 95.1875 C 131.382812 95.1875 130.738281 94.867188 130.335938 94.304688 C 129.695312 93.417969 129.933594 92.132812 130.820312 91.488281 L 148.023438 79.589844 C 148.90625 78.945312 150.191406 79.1875 150.835938 80.070312 C 151.480469 80.957031 151.238281 82.242188 150.355469 82.886719 L 133.152344 94.785156 C 132.828125 95.027344 132.425781 95.1875 132.023438 95.1875 Z M 132.023438 95.1875 " fill-opacity="1" fill-rule="nonzero"/><path fill="#000000" d="M 134.4375 108.375 C 133.792969 108.375 133.152344 108.054688 132.75 107.492188 C 132.105469 106.527344 132.425781 105.320312 133.3125 104.675781 L 149.066406 94.382812 C 150.03125 93.742188 151.238281 94.0625 151.882812 94.949219 C 152.523438 95.914062 152.203125 97.117188 151.320312 97.761719 L 135.5625 108.054688 C 135.160156 108.296875 134.757812 108.375 134.4375 108.375 Z M 134.4375 108.375 " fill-opacity="1" fill-rule="nonzero"/><path fill="#000000" d="M 138.617188 123.574219 C 138.054688 123.574219 137.410156 123.332031 137.007812 122.851562 C 136.285156 121.964844 136.445312 120.679688 137.332031 120.035156 L 152.28125 108.214844 C 153.167969 107.492188 154.453125 107.652344 155.097656 108.535156 C 155.820312 109.421875 155.660156 110.707031 154.773438 111.351562 L 139.824219 123.171875 C 139.5 123.414062 139.019531 123.574219 138.617188 123.574219 Z M 138.617188 123.574219 " fill-opacity="1" fill-rule="nonzero"/><g fill="#000000" fill-opacity="1"><g transform="translate(226.951615, 203.883133)"><g><path d="M 2.011719 -0.148438 L 4.785156 -0.351562 L 3.542969 -17.34375 L 0.769531 -17.140625 Z M 2.011719 -0.148438 "/></g></g></g><g fill="#000000" fill-opacity="1"><g transform="translate(236.009451, 203.220728)"><g><path d="M 12.832031 -18.023438 L 13.753906 -5.417969 L 3.402344 -17.332031 L 0.625 -17.128906 L 1.871094 -0.136719 L 4.644531 -0.339844 L 3.722656 -12.972656 L 14.046875 -1.027344 L 16.824219 -1.230469 L 15.582031 -18.222656 Z M 12.832031 -18.023438 "/></g></g></g><g fill="#000000" fill-opacity="1"><g transform="translate(256.99146, 201.686301)"><g><path d="M 12.832031 -18.023438 L 13.753906 -5.417969 L 3.402344 -17.332031 L 0.625 -17.128906 L 1.871094 -0.136719 L 4.644531 -0.339844 L 3.722656 -12.972656 L 14.046875 -1.027344 L 16.824219 -1.230469 L 15.582031 -18.222656 Z M 12.832031 -18.023438 "/></g></g></g><g fill="#000000" fill-opacity="1"><g transform="translate(277.97347, 200.151874)"><g><path d="M 9.957031 -0.5 C 14.773438 -0.851562 18.394531 -5.046875 18.042969 -9.863281 C 17.691406 -14.675781 13.496094 -18.300781 8.683594 -17.949219 C 3.867188 -17.59375 0.246094 -13.402344 0.597656 -8.585938 C 0.949219 -3.769531 5.144531 -0.148438 9.957031 -0.5 Z M 9.757812 -3.246094 C 6.414062 -3.003906 3.589844 -5.417969 3.34375 -8.785156 C 3.097656 -12.15625 5.539062 -14.957031 8.882812 -15.199219 C 12.253906 -15.445312 15.050781 -13.03125 15.296875 -9.660156 C 15.542969 -6.289062 13.128906 -3.496094 9.757812 -3.246094 Z M 9.757812 -3.246094 "/></g></g></g><g fill="#000000" fill-opacity="1"><g transform="translate(300.14506, 198.530453)"><g><path d="M 10.851562 -17.878906 L 7.25 -4.0625 L 1.644531 -17.207031 L -1.441406 -16.980469 L 5.949219 -0.433594 L 9.035156 -0.660156 L 13.9375 -18.105469 Z M 10.851562 -17.878906 "/></g></g></g><g fill="#000000" fill-opacity="1"><g transform="translate(317.416697, 197.267368)"><g><path d="M 12.179688 -0.890625 L 15.179688 -1.109375 L 7.792969 -17.65625 L 4.707031 -17.429688 L -0.199219 0.015625 L 2.804688 -0.203125 L 3.757812 -3.890625 L 10.699219 -4.398438 Z M 4.402344 -6.386719 L 6.484375 -14.511719 L 9.726562 -6.777344 Z M 4.402344 -6.386719 "/></g></g></g><g fill="#000000" fill-opacity="1"><g transform="translate(238.861115, 236.845517)"><g><path d="M 10.441406 -0.402344 C 15.269531 -0.757812 18.992188 -3.90625 18.640625 -8.734375 C 17.945312 -18.253906 5.417969 -15 5.015625 -20.5 C 4.863281 -22.601562 6.445312 -23.707031 8.414062 -23.847656 C 10.199219 -23.980469 11.867188 -23.292969 13.1875 -21.863281 L 16.066406 -24.902344 C 14.210938 -26.878906 11.289062 -28.148438 8.113281 -27.917969 C 3.914062 -27.609375 0.304688 -24.695312 0.660156 -19.867188 C 1.308594 -10.972656 13.84375 -14.089844 14.261719 -8.414062 C 14.421875 -6.222656 12.683594 -4.792969 10.179688 -4.609375 C 7.453125 -4.410156 5.285156 -5.777344 4.179688 -7.992188 L 0.589844 -5.4375 C 2.402344 -2.199219 6.148438 -0.0898438 10.441406 -0.402344 Z M 10.441406 -0.402344 "/></g></g></g><g fill="#000000" fill-opacity="1"><g transform="translate(262.767192, 235.097251)"><g><path d="M 16.679688 -28.183594 L -1.871094 -26.828125 L -1.574219 -22.757812 L 5.53125 -23.277344 L 7.195312 -0.527344 L 11.53125 -0.84375 L 9.867188 -23.597656 L 16.976562 -24.117188 Z M 16.679688 -28.183594 "/></g></g></g><g fill="#000000" fill-opacity="1"><g transform="translate(285.108734, 233.463401)"><g><path d="M 19.222656 -1.40625 L 23.960938 -1.753906 L 12.296875 -27.863281 L 7.425781 -27.507812 L -0.3125 0.0234375 L 4.425781 -0.324219 L 5.933594 -6.140625 L 16.882812 -6.941406 Z M 6.949219 -10.082031 L 10.234375 -22.902344 L 15.351562 -10.695312 Z M 6.949219 -10.082031 "/></g></g></g><g fill="#000000" fill-opacity="1"><g transform="translate(312.367385, 231.469959)"><g><path d="M 20.878906 -28.492188 L 15.828125 -28.121094 L 10.085938 -17.546875 L 2.910156 -27.175781 L -2.230469 -26.800781 L 8.195312 -13.273438 L 9.117188 -0.667969 L 13.5 -0.988281 L 12.570312 -13.683594 Z M 20.878906 -28.492188 "/></g></g></g></svg>