<svg xmlns="http://www.w3.org/2000/svg" xmlns:xlink="http://www.w3.org/1999/xlink" width="500" zoomAndPan="magnify" viewBox="0 0 375 374.999991" height="500" preserveAspectRatio="xMidYMid meet" version="1.0"><defs><g/><clipPath id="0e92199caf"><path d="M 95.378906 37.5 L 274.628906 37.5 L 274.628906 216.75 L 95.378906 216.75 Z M 95.378906 37.5 " clip-rule="nonzero"/></clipPath><clipPath id="cc9141b963"><path d="M 44 101 L 155 101 L 155 204 L 44 204 Z M 44 101 " clip-rule="nonzero"/></clipPath><clipPath id="dec43a077d"><path d="M 44.414062 162.164062 L 123.640625 101.941406 L 154.785156 142.917969 L 75.558594 203.136719 Z M 44.414062 162.164062 " clip-rule="nonzero"/></clipPath><clipPath id="001073d82a"><path d="M 44.414062 162.164062 L 123.601562 101.972656 L 154.746094 142.945312 L 75.558594 203.136719 Z M 44.414062 162.164062 " clip-rule="nonzero"/></clipPath><clipPath id="fc5a7e8831"><path d="M 218 104 L 331 104 L 331 201 L 218 201 Z M 218 104 " clip-rule="nonzero"/></clipPath><clipPath id="1965456b03"><path d="M 245.691406 104.679688 L 330.625 156.539062 L 303.804688 200.46875 L 218.871094 148.609375 Z M 245.691406 104.679688 " clip-rule="nonzero"/></clipPath><clipPath id="7800f04fc2"><path d="M 245.691406 104.679688 L 330.585938 156.515625 L 303.765625 200.441406 L 218.871094 148.609375 Z M 245.691406 104.679688 " clip-rule="nonzero"/></clipPath><clipPath id="9d245b2bbd"><path d="M 84.6875 91.292969 L 285.6875 91.292969 L 285.6875 163.292969 L 84.6875 163.292969 Z M 84.6875 91.292969 " clip-rule="nonzero"/></clipPath><clipPath id="6134598f22"><path d="M 172.542969 143.289062 L 181.8125 143.289062 L 181.8125 152.558594 L 172.542969 152.558594 Z M 172.542969 143.289062 " clip-rule="nonzero"/></clipPath><clipPath id="1407ac4f56"><path d="M 172.542969 158.421875 L 181.8125 158.421875 L 181.8125 167.691406 L 172.542969 167.691406 Z M 172.542969 158.421875 " clip-rule="nonzero"/></clipPath><clipPath id="46c23d0925"><path d="M 188.300781 143.289062 L 197.570312 143.289062 L 197.570312 152.558594 L 188.300781 152.558594 Z M 188.300781 143.289062 " clip-rule="nonzero"/></clipPath><clipPath id="e6ee6da5e1"><path d="M 188.300781 158.421875 L 197.570312 158.421875 L 197.570312 167.691406 L 188.300781 167.691406 Z M 188.300781 158.421875 " clip-rule="nonzero"/></clipPath></defs><g clip-path="url(#0e92199caf)"><path stroke-linecap="butt" transform="matrix(0.75, 0, 0, 0.75, 95.380376, 37.499998)" fill="none" stroke-linejoin="miter" d="M -0.00195945 0.00000328333 L 239.123056 0.00000328333 L 239.123056 239.125019 L -0.00195945 239.125019 Z M -0.00195945 0.00000328333 " stroke="#374151" stroke-width="14" stroke-opacity="1" stroke-miterlimit="4"/></g><g clip-path="url(#cc9141b963)"><g clip-path="url(#dec43a077d)"><g clip-path="url(#001073d82a)"><path fill="#ffffff" d="M 44.414062 162.164062 L 123.640625 101.941406 L 154.785156 142.917969 L 75.558594 203.136719 Z M 44.414062 162.164062 " fill-opacity="1" fill-rule="nonzero"/></g></g></g><g clip-path="url(#fc5a7e8831)"><g clip-path="url(#1965456b03)"><g clip-path="url(#7800f04fc2)"><path fill="#ffffff" d="M 245.691406 104.679688 L 330.625 156.539062 L 303.804688 200.46875 L 218.871094 148.609375 Z M 245.691406 104.679688 " fill-opacity="1" fill-rule="nonzero"/></g></g></g><path fill="#4f46e5" d="M 133.449219 148.105469 L 183.253906 115.160156 L 185.0625 113.964844 L 186.855469 115.160156 L 236.671875 148.105469 L 233.070312 153.539062 L 185.0625 121.789062 L 137.050781 153.539062 Z M 133.449219 148.105469 " fill-opacity="1" fill-rule="nonzero"/><g clip-path="url(#9d245b2bbd)"><path fill="#4f46e5" d="M 127.34375 129.453125 L 133.484375 125.390625 L 133.484375 104.257812 L 127.34375 104.257812 Z M 281.765625 163.046875 L 185.0625 99.105469 L 88.355469 163.046875 L 84.753906 157.605469 L 120.800781 133.773438 L 120.800781 97.726562 L 140.015625 97.726562 L 140.015625 121.078125 L 183.253906 92.492188 L 185.0625 91.292969 L 186.855469 92.492188 L 285.355469 157.617188 Z M 281.765625 163.046875 " fill-opacity="1" fill-rule="nonzero"/></g><g clip-path="url(#6134598f22)"><path fill="#323232" d="M 172.542969 143.289062 L 181.8125 143.289062 L 181.8125 152.558594 L 172.542969 152.558594 Z M 172.542969 143.289062 " fill-opacity="1" fill-rule="nonzero"/></g><g clip-path="url(#1407ac4f56)"><path fill="#323232" d="M 172.542969 158.421875 L 181.8125 158.421875 L 181.8125 167.691406 L 172.542969 167.691406 Z M 172.542969 158.421875 " fill-opacity="1" fill-rule="nonzero"/></g><g clip-path="url(#46c23d0925)"><path fill="#323232" d="M 188.300781 143.289062 L 197.570312 143.289062 L 197.570312 152.558594 L 188.300781 152.558594 Z M 188.300781 143.289062 " fill-opacity="1" fill-rule="nonzero"/></g><g clip-path="url(#e6ee6da5e1)"><path fill="#323232" d="M 188.300781 158.421875 L 197.570312 158.421875 L 197.570312 167.691406 L 188.300781 167.691406 Z M 188.300781 158.421875 " fill-opacity="1" fill-rule="nonzero"/></g><g fill="#374151" fill-opacity="1"><g transform="translate(0.223045, 269.389971)"><g><path d="M 14.15625 -36.84375 L 14.15625 0 L 2.609375 0 L 2.609375 -36.84375 Z M 14.15625 -36.84375 "/></g></g></g><g fill="#374151" fill-opacity="1"><g transform="translate(16.974818, 269.389971)"><g><path d="M 37.9375 0 L 26.390625 0 L 14.15625 -18.53125 L 14.15625 0 L 2.609375 0 L 2.609375 -36.84375 L 14.15625 -36.84375 L 26.390625 -18.015625 L 26.390625 -36.84375 L 37.9375 -36.84375 Z M 37.9375 0 "/></g></g></g><g fill="#374151" fill-opacity="1"><g transform="translate(57.501603, 269.389971)"><g><path d="M 37.9375 0 L 26.390625 0 L 14.15625 -18.53125 L 14.15625 0 L 2.609375 0 L 2.609375 -36.84375 L 14.15625 -36.84375 L 26.390625 -18.015625 L 26.390625 -36.84375 L 37.9375 -36.84375 Z M 37.9375 0 "/></g></g></g><g fill="#374151" fill-opacity="1"><g transform="translate(98.028389, 269.389971)"><g><path d="M 20.5625 0.359375 C 17.09375 0.359375 13.90625 -0.453125 11 -2.078125 C 8.101562 -3.710938 5.804688 -5.96875 4.109375 -8.84375 C 2.410156 -11.726562 1.5625 -14.972656 1.5625 -18.578125 C 1.5625 -22.191406 2.410156 -25.4375 4.109375 -28.3125 C 5.804688 -31.195312 8.101562 -33.441406 11 -35.046875 C 13.90625 -36.660156 17.09375 -37.46875 20.5625 -37.46875 C 24.03125 -37.46875 27.203125 -36.660156 30.078125 -35.046875 C 32.960938 -33.441406 35.242188 -31.195312 36.921875 -28.3125 C 38.609375 -25.4375 39.453125 -22.191406 39.453125 -18.578125 C 39.453125 -14.972656 38.609375 -11.726562 36.921875 -8.84375 C 35.242188 -5.96875 32.957031 -3.710938 30.0625 -2.078125 C 27.164062 -0.453125 24 0.359375 20.5625 0.359375 Z M 20.5625 -10.40625 C 22.851562 -10.40625 24.617188 -11.140625 25.859375 -12.609375 C 27.109375 -14.085938 27.734375 -16.078125 27.734375 -18.578125 C 27.734375 -21.109375 27.109375 -23.109375 25.859375 -24.578125 C 24.617188 -26.054688 22.851562 -26.796875 20.5625 -26.796875 C 18.238281 -26.796875 16.453125 -26.054688 15.203125 -24.578125 C 13.953125 -23.109375 13.328125 -21.109375 13.328125 -18.578125 C 13.328125 -16.078125 13.953125 -14.085938 15.203125 -12.609375 C 16.453125 -11.140625 18.238281 -10.40625 20.5625 -10.40625 Z M 20.5625 -10.40625 "/></g></g></g><g fill="#374151" fill-opacity="1"><g transform="translate(139.023391, 269.389971)"><g><path d="M 39.71875 -36.84375 L 27.328125 0 L 12.390625 0 L 0 -36.84375 L 12.28125 -36.84375 L 19.875 -11.5 L 27.421875 -36.84375 Z M 39.71875 -36.84375 "/></g></g></g><g fill="#374151" fill-opacity="1"><g transform="translate(178.717777, 269.389971)"><g><path d="M 26.234375 -5.5625 L 13.953125 -5.5625 L 12.125 0 L 0 0 L 13.484375 -36.84375 L 26.796875 -36.84375 L 40.234375 0 L 28.046875 0 Z M 23.421875 -14.265625 L 20.09375 -24.515625 L 16.765625 -14.265625 Z M 23.421875 -14.265625 "/></g></g></g><g fill="#374151" fill-opacity="1"><g transform="translate(218.93241, 269.389971)"><g/></g></g><g fill="#374151" fill-opacity="1"><g transform="translate(227.776512, 269.389971)"><g><path d="M 17.015625 0.359375 C 12.609375 0.359375 8.972656 -0.671875 6.109375 -2.734375 C 3.253906 -4.796875 1.703125 -7.820312 1.453125 -11.8125 L 13.734375 -11.8125 C 13.910156 -9.695312 14.847656 -8.640625 16.546875 -8.640625 C 17.171875 -8.640625 17.695312 -8.785156 18.125 -9.078125 C 18.5625 -9.378906 18.78125 -9.84375 18.78125 -10.46875 C 18.78125 -11.332031 18.3125 -12.03125 17.375 -12.5625 C 16.445312 -13.101562 14.992188 -13.722656 13.015625 -14.421875 C 10.648438 -15.253906 8.695312 -16.066406 7.15625 -16.859375 C 5.613281 -17.660156 4.285156 -18.820312 3.171875 -20.34375 C 2.066406 -21.875 1.53125 -23.835938 1.5625 -26.234375 C 1.5625 -28.628906 2.175781 -30.664062 3.40625 -32.34375 C 4.632812 -34.03125 6.316406 -35.304688 8.453125 -36.171875 C 10.585938 -37.035156 12.992188 -37.46875 15.671875 -37.46875 C 20.179688 -37.46875 23.757812 -36.425781 26.40625 -34.34375 C 29.0625 -32.269531 30.460938 -29.34375 30.609375 -25.5625 L 18.171875 -25.5625 C 18.128906 -26.59375 17.863281 -27.332031 17.375 -27.78125 C 16.894531 -28.238281 16.304688 -28.46875 15.609375 -28.46875 C 15.128906 -28.46875 14.734375 -28.300781 14.421875 -27.96875 C 14.109375 -27.644531 13.953125 -27.1875 13.953125 -26.59375 C 13.953125 -25.757812 14.410156 -25.070312 15.328125 -24.53125 C 16.242188 -24 17.707031 -23.351562 19.71875 -22.59375 C 22.050781 -21.71875 23.96875 -20.878906 25.46875 -20.078125 C 26.976562 -19.285156 28.289062 -18.175781 29.40625 -16.75 C 30.519531 -15.332031 31.078125 -13.546875 31.078125 -11.390625 C 31.078125 -9.140625 30.519531 -7.117188 29.40625 -5.328125 C 28.289062 -3.546875 26.675781 -2.148438 24.5625 -1.140625 C 22.445312 -0.140625 19.929688 0.359375 17.015625 0.359375 Z M 17.015625 0.359375 "/></g></g></g><g fill="#374151" fill-opacity="1"><g transform="translate(260.291568, 269.389971)"><g><path d="M 31.546875 -36.84375 L 31.546875 -27.6875 L 21.75 -27.6875 L 21.75 0 L 10.203125 0 L 10.203125 -27.6875 L 0.515625 -27.6875 L 0.515625 -36.84375 Z M 31.546875 -36.84375 "/></g></g></g><g fill="#374151" fill-opacity="1"><g transform="translate(292.338407, 269.389971)"><g><path d="M 26.234375 -5.5625 L 13.953125 -5.5625 L 12.125 0 L 0 0 L 13.484375 -36.84375 L 26.796875 -36.84375 L 40.234375 0 L 28.046875 0 Z M 23.421875 -14.265625 L 20.09375 -24.515625 L 16.765625 -14.265625 Z M 23.421875 -14.265625 "/></g></g></g><g fill="#374151" fill-opacity="1"><g transform="translate(332.55304, 269.389971)"><g><path d="M 38 -36.84375 L 24.78125 -11.1875 L 24.78125 0 L 13.21875 0 L 13.21875 -11.1875 L 0 -36.84375 L 13.21875 -36.84375 L 19.09375 -23.78125 L 24.984375 -36.84375 Z M 38 -36.84375 "/></g></g></g><g fill="#4f46e5" fill-opacity="1"><g transform="translate(41.611317, 305.331616)"><g><path d="M 17.296875 -17.75 L 17.296875 0 L 12.359375 0 L 12.359375 -7.125 L 6.34375 -7.125 L 6.34375 0 L 1.40625 0 L 1.40625 -17.75 L 6.34375 -17.75 L 6.34375 -11.078125 L 12.359375 -11.078125 L 12.359375 -17.75 Z M 17.296875 -17.75 "/></g></g></g><g fill="#4f46e5" fill-opacity="1"><g transform="translate(60.316007, 305.331616)"><g><path d="M 9.921875 0.171875 C 8.265625 0.171875 6.738281 -0.21875 5.34375 -1 C 3.945312 -1.78125 2.84375 -2.863281 2.03125 -4.25 C 1.21875 -5.632812 0.8125 -7.195312 0.8125 -8.9375 C 0.8125 -10.6875 1.21875 -12.253906 2.03125 -13.640625 C 2.84375 -15.023438 3.945312 -16.101562 5.34375 -16.875 C 6.738281 -17.644531 8.265625 -18.03125 9.921875 -18.03125 C 11.597656 -18.03125 13.128906 -17.644531 14.515625 -16.875 C 15.898438 -16.101562 16.992188 -15.023438 17.796875 -13.640625 C 18.609375 -12.253906 19.015625 -10.6875 19.015625 -8.9375 C 19.015625 -7.195312 18.609375 -5.632812 17.796875 -4.25 C 16.992188 -2.863281 15.894531 -1.78125 14.5 -1 C 13.113281 -0.21875 11.585938 0.171875 9.921875 0.171875 Z M 9.921875 -4.40625 C 11.179688 -4.40625 12.175781 -4.816406 12.90625 -5.640625 C 13.632812 -6.460938 14 -7.5625 14 -8.9375 C 14 -10.351562 13.632812 -11.46875 12.90625 -12.28125 C 12.175781 -13.09375 11.179688 -13.5 9.921875 -13.5 C 8.648438 -13.5 7.648438 -13.09375 6.921875 -12.28125 C 6.203125 -11.46875 5.84375 -10.351562 5.84375 -8.9375 C 5.84375 -7.539062 6.203125 -6.4375 6.921875 -5.625 C 7.648438 -4.8125 8.648438 -4.40625 9.921875 -4.40625 Z M 9.921875 -4.40625 "/></g></g></g><g fill="#4f46e5" fill-opacity="1"><g transform="translate(80.128397, 305.331616)"><g><path d="M 14.78125 -17.75 L 14.78125 -13.828125 L 10.046875 -13.828125 L 10.046875 0 L 5.109375 0 L 5.109375 -13.828125 L 0.421875 -13.828125 L 0.421875 -17.75 Z M 14.78125 -17.75 "/></g></g></g><g fill="#4f46e5" fill-opacity="1"><g transform="translate(95.33384, 305.331616)"><g><path d="M 6.34375 -13.796875 L 6.34375 -10.90625 L 12.015625 -10.90625 L 12.015625 -7.15625 L 6.34375 -7.15625 L 6.34375 -3.953125 L 12.765625 -3.953125 L 12.765625 0 L 1.40625 0 L 1.40625 -17.75 L 12.765625 -17.75 L 12.765625 -13.796875 Z M 6.34375 -13.796875 "/></g></g></g><g fill="#4f46e5" fill-opacity="1"><g transform="translate(109.129491, 305.331616)"><g><path d="M 6.34375 -3.78125 L 11.859375 -3.78125 L 11.859375 0 L 1.40625 0 L 1.40625 -17.75 L 6.34375 -17.75 Z M 6.34375 -3.78125 "/></g></g></g><g fill="#4f46e5" fill-opacity="1"><g transform="translate(121.490205, 305.331616)"><g/></g></g><g fill="#4f46e5" fill-opacity="1"><g transform="translate(126.298554, 305.331616)"><g><path d="M 22.140625 -17.75 L 22.140625 0 L 17.203125 0 L 17.203125 -9.796875 L 13.859375 0 L 9.71875 0 L 6.34375 -9.875 L 6.34375 0 L 1.40625 0 L 1.40625 -17.75 L 7.375 -17.75 L 11.84375 -6.21875 L 16.203125 -17.75 Z M 22.140625 -17.75 "/></g></g></g><g fill="#4f46e5" fill-opacity="1"><g transform="translate(149.83676, 305.331616)"><g><path d="M 12.640625 -2.890625 L 6.34375 -2.890625 L 5.390625 0 L 0.203125 0 L 6.671875 -17.75 L 12.359375 -17.75 L 18.8125 0 L 13.59375 0 Z M 11.40625 -6.671875 L 9.5 -12.421875 L 7.609375 -6.671875 Z M 11.40625 -6.671875 "/></g></g></g><g fill="#4f46e5" fill-opacity="1"><g transform="translate(168.843564, 305.331616)"><g><path d="M 17.859375 0 L 12.921875 0 L 6.34375 -9.921875 L 6.34375 0 L 1.40625 0 L 1.40625 -17.75 L 6.34375 -17.75 L 12.921875 -7.703125 L 12.921875 -17.75 L 17.859375 -17.75 Z M 17.859375 0 "/></g></g></g><g fill="#4f46e5" fill-opacity="1"><g transform="translate(188.102104, 305.331616)"><g><path d="M 12.640625 -2.890625 L 6.34375 -2.890625 L 5.390625 0 L 0.203125 0 L 6.671875 -17.75 L 12.359375 -17.75 L 18.8125 0 L 13.59375 0 Z M 11.40625 -6.671875 L 9.5 -12.421875 L 7.609375 -6.671875 Z M 11.40625 -6.671875 "/></g></g></g><g fill="#4f46e5" fill-opacity="1"><g transform="translate(207.108908, 305.331616)"><g><path d="M 12.75 -11.90625 C 12.457031 -12.382812 12.0625 -12.75 11.5625 -13 C 11.070312 -13.25 10.492188 -13.375 9.828125 -13.375 C 8.578125 -13.375 7.59375 -12.96875 6.875 -12.15625 C 6.164062 -11.351562 5.8125 -10.273438 5.8125 -8.921875 C 5.8125 -7.390625 6.191406 -6.222656 6.953125 -5.421875 C 7.722656 -4.628906 8.835938 -4.234375 10.296875 -4.234375 C 12.023438 -4.234375 13.257812 -5.015625 14 -6.578125 L 9.046875 -6.578125 L 9.046875 -10.125 L 18.265625 -10.125 L 18.265625 -5.34375 C 17.878906 -4.394531 17.3125 -3.507812 16.5625 -2.6875 C 15.8125 -1.863281 14.863281 -1.1875 13.71875 -0.65625 C 12.582031 -0.132812 11.285156 0.125 9.828125 0.125 C 8.046875 0.125 6.46875 -0.253906 5.09375 -1.015625 C 3.726562 -1.785156 2.671875 -2.851562 1.921875 -4.21875 C 1.179688 -5.582031 0.8125 -7.148438 0.8125 -8.921875 C 0.8125 -10.660156 1.179688 -12.210938 1.921875 -13.578125 C 2.671875 -14.953125 3.722656 -16.019531 5.078125 -16.78125 C 6.441406 -17.550781 8.015625 -17.9375 9.796875 -17.9375 C 12.023438 -17.9375 13.867188 -17.394531 15.328125 -16.3125 C 16.796875 -15.238281 17.707031 -13.769531 18.0625 -11.90625 Z M 12.75 -11.90625 "/></g></g></g><g fill="#4f46e5" fill-opacity="1"><g transform="translate(226.166046, 305.331616)"><g><path d="M 6.34375 -17.75 L 6.34375 0 L 1.40625 0 L 1.40625 -17.75 Z M 6.34375 -17.75 "/></g></g></g><g fill="#4f46e5" fill-opacity="1"><g transform="translate(233.919813, 305.331616)"><g><path d="M 17.859375 0 L 12.921875 0 L 6.34375 -9.921875 L 6.34375 0 L 1.40625 0 L 1.40625 -17.75 L 6.34375 -17.75 L 12.921875 -7.703125 L 12.921875 -17.75 L 17.859375 -17.75 Z M 17.859375 0 "/></g></g></g><g fill="#4f46e5" fill-opacity="1"><g transform="translate(253.178353, 305.331616)"><g><path d="M 12.75 -11.90625 C 12.457031 -12.382812 12.0625 -12.75 11.5625 -13 C 11.070312 -13.25 10.492188 -13.375 9.828125 -13.375 C 8.578125 -13.375 7.59375 -12.96875 6.875 -12.15625 C 6.164062 -11.351562 5.8125 -10.273438 5.8125 -8.921875 C 5.8125 -7.390625 6.191406 -6.222656 6.953125 -5.421875 C 7.722656 -4.628906 8.835938 -4.234375 10.296875 -4.234375 C 12.023438 -4.234375 13.257812 -5.015625 14 -6.578125 L 9.046875 -6.578125 L 9.046875 -10.125 L 18.265625 -10.125 L 18.265625 -5.34375 C 17.878906 -4.394531 17.3125 -3.507812 16.5625 -2.6875 C 15.8125 -1.863281 14.863281 -1.1875 13.71875 -0.65625 C 12.582031 -0.132812 11.285156 0.125 9.828125 0.125 C 8.046875 0.125 6.46875 -0.253906 5.09375 -1.015625 C 3.726562 -1.785156 2.671875 -2.851562 1.921875 -4.21875 C 1.179688 -5.582031 0.8125 -7.148438 0.8125 -8.921875 C 0.8125 -10.660156 1.179688 -12.210938 1.921875 -13.578125 C 2.671875 -14.953125 3.722656 -16.019531 5.078125 -16.78125 C 6.441406 -17.550781 8.015625 -17.9375 9.796875 -17.9375 C 12.023438 -17.9375 13.867188 -17.394531 15.328125 -16.3125 C 16.796875 -15.238281 17.707031 -13.769531 18.0625 -11.90625 Z M 12.75 -11.90625 "/></g></g></g><g fill="#4f46e5" fill-opacity="1"><g transform="translate(272.235491, 305.331616)"><g/></g></g><g fill="#4f46e5" fill-opacity="1"><g transform="translate(277.04384, 305.331616)"><g><path d="M 14.78125 -17.75 L 14.78125 -13.828125 L 10.046875 -13.828125 L 10.046875 0 L 5.109375 0 L 5.109375 -13.828125 L 0.421875 -13.828125 L 0.421875 -17.75 Z M 14.78125 -17.75 "/></g></g></g><g fill="#4f46e5" fill-opacity="1"><g transform="translate(292.249283, 305.331616)"><g><path d="M 9.921875 0.171875 C 8.265625 0.171875 6.738281 -0.21875 5.34375 -1 C 3.945312 -1.78125 2.84375 -2.863281 2.03125 -4.25 C 1.21875 -5.632812 0.8125 -7.195312 0.8125 -8.9375 C 0.8125 -10.6875 1.21875 -12.253906 2.03125 -13.640625 C 2.84375 -15.023438 3.945312 -16.101562 5.34375 -16.875 C 6.738281 -17.644531 8.265625 -18.03125 9.921875 -18.03125 C 11.597656 -18.03125 13.128906 -17.644531 14.515625 -16.875 C 15.898438 -16.101562 16.992188 -15.023438 17.796875 -13.640625 C 18.609375 -12.253906 19.015625 -10.6875 19.015625 -8.9375 C 19.015625 -7.195312 18.609375 -5.632812 17.796875 -4.25 C 16.992188 -2.863281 15.894531 -1.78125 14.5 -1 C 13.113281 -0.21875 11.585938 0.171875 9.921875 0.171875 Z M 9.921875 -4.40625 C 11.179688 -4.40625 12.175781 -4.816406 12.90625 -5.640625 C 13.632812 -6.460938 14 -7.5625 14 -8.9375 C 14 -10.351562 13.632812 -11.46875 12.90625 -12.28125 C 12.175781 -13.09375 11.179688 -13.5 9.921875 -13.5 C 8.648438 -13.5 7.648438 -13.09375 6.921875 -12.28125 C 6.203125 -11.46875 5.84375 -10.351562 5.84375 -8.9375 C 5.84375 -7.539062 6.203125 -6.4375 6.921875 -5.625 C 7.648438 -4.8125 8.648438 -4.40625 9.921875 -4.40625 Z M 9.921875 -4.40625 "/></g></g></g><g fill="#4f46e5" fill-opacity="1"><g transform="translate(312.061673, 305.331616)"><g><path d="M 9.921875 0.171875 C 8.265625 0.171875 6.738281 -0.21875 5.34375 -1 C 3.945312 -1.78125 2.84375 -2.863281 2.03125 -4.25 C 1.21875 -5.632812 0.8125 -7.195312 0.8125 -8.9375 C 0.8125 -10.6875 1.21875 -12.253906 2.03125 -13.640625 C 2.84375 -15.023438 3.945312 -16.101562 5.34375 -16.875 C 6.738281 -17.644531 8.265625 -18.03125 9.921875 -18.03125 C 11.597656 -18.03125 13.128906 -17.644531 14.515625 -16.875 C 15.898438 -16.101562 16.992188 -15.023438 17.796875 -13.640625 C 18.609375 -12.253906 19.015625 -10.6875 19.015625 -8.9375 C 19.015625 -7.195312 18.609375 -5.632812 17.796875 -4.25 C 16.992188 -2.863281 15.894531 -1.78125 14.5 -1 C 13.113281 -0.21875 11.585938 0.171875 9.921875 0.171875 Z M 9.921875 -4.40625 C 11.179688 -4.40625 12.175781 -4.816406 12.90625 -5.640625 C 13.632812 -6.460938 14 -7.5625 14 -8.9375 C 14 -10.351562 13.632812 -11.46875 12.90625 -12.28125 C 12.175781 -13.09375 11.179688 -13.5 9.921875 -13.5 C 8.648438 -13.5 7.648438 -13.09375 6.921875 -12.28125 C 6.203125 -11.46875 5.84375 -10.351562 5.84375 -8.9375 C 5.84375 -7.539062 6.203125 -6.4375 6.921875 -5.625 C 7.648438 -4.8125 8.648438 -4.40625 9.921875 -4.40625 Z M 9.921875 -4.40625 "/></g></g></g><g fill="#4f46e5" fill-opacity="1"><g transform="translate(331.874062, 305.331616)"><g><path d="M 6.34375 -3.78125 L 11.859375 -3.78125 L 11.859375 0 L 1.40625 0 L 1.40625 -17.75 L 6.34375 -17.75 Z M 6.34375 -3.78125 "/></g></g></g></svg>