<svg xmlns="http://www.w3.org/2000/svg" xmlns:xlink="http://www.w3.org/1999/xlink" width="500" zoomAndPan="magnify" viewBox="0 0 375 374.999991" height="500" preserveAspectRatio="xMidYMid meet" version="1.0"><defs><filter x="0%" y="0%" width="100%" height="100%" id="012f017768"><feColorMatrix values="0 0 0 0 1 0 0 0 0 1 0 0 0 0 1 0 0 0 1 0" color-interpolation-filters="sRGB"/></filter><g/><clipPath id="58d1eda988"><path d="M 121.058594 65 L 247.808594 65 L 247.808594 130 L 121.058594 130 Z M 121.058594 65 " clip-rule="nonzero"/></clipPath><clipPath id="9926896933"><path d="M 132 143 L 237 143 L 237 201.253906 L 132 201.253906 Z M 132 143 " clip-rule="nonzero"/></clipPath><clipPath id="20369f2134"><path d="M 186.949219 114.746094 L 198.980469 114.746094 L 198.980469 126.773438 L 186.949219 126.773438 Z M 186.949219 114.746094 " clip-rule="nonzero"/></clipPath><clipPath id="4a367816b8"><path d="M 169.574219 114.746094 L 181.605469 114.746094 L 181.605469 126.773438 L 169.574219 126.773438 Z M 169.574219 114.746094 " clip-rule="nonzero"/></clipPath><clipPath id="ddc81009e6"><path d="M 186.949219 132.304688 L 198.980469 132.304688 L 198.980469 144.335938 L 186.949219 144.335938 Z M 186.949219 132.304688 " clip-rule="nonzero"/></clipPath><clipPath id="57b249ef56"><path d="M 169.574219 132.304688 L 181.605469 132.304688 L 181.605469 144.335938 L 169.574219 144.335938 Z M 169.574219 132.304688 " clip-rule="nonzero"/></clipPath><mask id="d5d23130b9"><g filter="url(#012f017768)"><rect x="-37.5" width="450" fill="#000000" y="-37.499999" height="449.999989" fill-opacity="0.9"/></g></mask><clipPath id="4b95deb57a"><path d="M 0.78125 0.417969 L 201.78125 0.417969 L 201.78125 201.417969 L 0.78125 201.417969 Z M 0.78125 0.417969 " clip-rule="nonzero"/></clipPath><clipPath id="8b03c995ad"><rect x="0" width="203" y="0" height="203"/></clipPath></defs><g clip-path="url(#58d1eda988)"><path fill="#e5e7eb" d="M 246.320312 124.207031 L 186.441406 65.929688 C 185.289062 64.8125 183.457031 64.8125 182.308594 65.929688 L 122.429688 124.207031 C 121.253906 125.347656 121.234375 127.222656 122.371094 128.398438 C 123.511719 129.574219 125.390625 129.59375 126.5625 128.453125 L 184.375 72.1875 L 242.191406 128.453125 C 242.765625 129.011719 243.507812 129.292969 244.253906 129.292969 C 245.027344 129.292969 245.796875 128.996094 246.378906 128.398438 C 247.515625 127.222656 247.492188 125.347656 246.320312 124.207031 Z M 246.320312 124.207031 " fill-opacity="1" fill-rule="nonzero"/></g><g clip-path="url(#9926896933)"><path fill="#e5e7eb" d="M 233.285156 143.617188 C 231.648438 143.617188 230.324219 144.945312 230.324219 146.578125 L 230.324219 189.765625 C 230.324219 192.761719 227.890625 195.195312 224.894531 195.195312 L 143.851562 195.195312 C 140.859375 195.195312 138.425781 192.761719 138.425781 189.765625 L 138.425781 146.578125 C 138.425781 144.945312 137.097656 143.617188 135.460938 143.617188 C 133.824219 143.617188 132.496094 144.945312 132.496094 146.578125 L 132.496094 189.765625 C 132.496094 196.027344 137.589844 201.121094 143.851562 201.121094 L 224.890625 201.121094 C 231.15625 201.121094 236.246094 196.027344 236.246094 189.765625 L 236.246094 146.578125 C 236.25 144.945312 234.921875 143.617188 233.285156 143.617188 Z M 233.285156 143.617188 " fill-opacity="1" fill-rule="nonzero"/></g><path stroke-linecap="round" transform="matrix(0.75, 0, 0, 0.75, 140.026752, 76.050098)" fill="none" stroke-linejoin="miter" d="M 3.500789 3.500911 L 23.68829 3.500911 " stroke="#e5e7eb" stroke-width="7" stroke-opacity="1" stroke-miterlimit="4"/><path stroke-linecap="round" transform="matrix(0, -0.75, 0.75, 0, 155.597176, 96.398996)" fill="none" stroke-linejoin="miter" d="M 3.500745 3.500641 L 23.636163 3.500641 " stroke="#e5e7eb" stroke-width="7" stroke-opacity="1" stroke-miterlimit="4"/><path stroke-linecap="round" transform="matrix(0, -0.75, 0.75, 0, 139.994028, 110.473294)" fill="none" stroke-linejoin="miter" d="M 3.50085 3.497546 L 42.407103 3.497546 " stroke="#e5e7eb" stroke-width="7" stroke-opacity="1" stroke-miterlimit="4"/><g clip-path="url(#20369f2134)"><path fill="#4f46e5" d="M 186.949219 114.746094 L 198.980469 114.746094 L 198.980469 126.773438 L 186.949219 126.773438 Z M 186.949219 114.746094 " fill-opacity="1" fill-rule="nonzero"/></g><g clip-path="url(#4a367816b8)"><path fill="#4f46e5" d="M 169.574219 114.746094 L 181.605469 114.746094 L 181.605469 126.773438 L 169.574219 126.773438 Z M 169.574219 114.746094 " fill-opacity="1" fill-rule="nonzero"/></g><g clip-path="url(#ddc81009e6)"><path fill="#4f46e5" d="M 186.949219 132.304688 L 198.980469 132.304688 L 198.980469 144.335938 L 186.949219 144.335938 Z M 186.949219 132.304688 " fill-opacity="1" fill-rule="nonzero"/></g><g clip-path="url(#57b249ef56)"><path fill="#4f46e5" d="M 169.574219 132.304688 L 181.605469 132.304688 L 181.605469 144.335938 L 169.574219 144.335938 Z M 169.574219 132.304688 " fill-opacity="1" fill-rule="nonzero"/></g><g mask="url(#d5d23130b9)"><g transform="matrix(1, 0, 0, 1, 83, 32)"><g clip-path="url(#8b03c995ad)"><g clip-path="url(#4b95deb57a)"><path fill="#e5e7eb" d="M 101.273438 201.40625 C 45.753906 201.40625 0.78125 156.121094 0.78125 100.910156 C 0.78125 45.703125 45.753906 0.417969 101.273438 0.417969 C 156.792969 0.417969 201.769531 45.390625 201.769531 100.910156 C 201.769531 156.429688 156.484375 201.40625 101.273438 201.40625 Z M 101.273438 6.621094 C 49.167969 6.621094 6.984375 48.804688 6.984375 100.910156 C 6.984375 153.019531 49.167969 195.203125 101.273438 195.203125 C 153.382812 195.203125 195.566406 153.019531 195.566406 100.910156 C 195.566406 48.804688 153.074219 6.621094 101.273438 6.621094 Z M 101.273438 6.621094 " fill-opacity="1" fill-rule="nonzero"/></g></g></g></g><g fill="#e5e7eb" fill-opacity="1"><g transform="translate(8.69151, 289.057074)"><g><path d="M 4.046875 0 L 9.632812 0 L 9.632812 -34.195312 L 4.046875 -34.195312 Z M 4.046875 0 "/></g></g></g><g fill="#e5e7eb" fill-opacity="1"><g transform="translate(26.918514, 289.057074)"><g><path d="M 28.328125 -34.195312 L 28.328125 -8.835938 L 9.347656 -34.195312 L 3.761719 -34.195312 L 3.761719 0 L 9.347656 0 L 9.347656 -25.417969 L 28.269531 0 L 33.855469 0 L 33.855469 -34.195312 Z M 28.328125 -34.195312 "/></g></g></g><g fill="#e5e7eb" fill-opacity="1"><g transform="translate(69.140432, 289.057074)"><g><path d="M 28.328125 -34.195312 L 28.328125 -8.835938 L 9.347656 -34.195312 L 3.761719 -34.195312 L 3.761719 0 L 9.347656 0 L 9.347656 -25.417969 L 28.269531 0 L 33.855469 0 L 33.855469 -34.195312 Z M 28.328125 -34.195312 "/></g></g></g><g fill="#e5e7eb" fill-opacity="1"><g transform="translate(111.362349, 289.057074)"><g><path d="M 20.003906 0.457031 C 29.695312 0.457031 37.558594 -7.410156 37.558594 -17.097656 C 37.558594 -26.789062 29.695312 -34.652344 20.003906 -34.652344 C 10.316406 -34.652344 2.449219 -26.789062 2.449219 -17.097656 C 2.449219 -7.410156 10.316406 0.457031 20.003906 0.457031 Z M 20.003906 -5.074219 C 13.28125 -5.074219 7.980469 -10.316406 7.980469 -17.097656 C 7.980469 -23.882812 13.28125 -29.125 20.003906 -29.125 C 26.789062 -29.125 32.03125 -23.882812 32.03125 -17.097656 C 32.03125 -10.316406 26.789062 -5.074219 20.003906 -5.074219 Z M 20.003906 -5.074219 "/></g></g></g><g fill="#e5e7eb" fill-opacity="1"><g transform="translate(155.97805, 289.057074)"><g><path d="M 24.335938 -34.195312 L 15.105469 -7.066406 L 5.8125 -34.195312 L -0.398438 -34.195312 L 11.96875 0 L 18.179688 0 L 30.550781 -34.195312 Z M 24.335938 -34.195312 "/></g></g></g><g fill="#e5e7eb" fill-opacity="1"><g transform="translate(190.733618, 289.057074)"><g><path d="M 24.507812 0 L 30.550781 0 L 18.179688 -34.195312 L 11.96875 -34.195312 L -0.398438 0 L 5.640625 0 L 8.09375 -7.238281 L 22.058594 -7.238281 Z M 9.746094 -12.140625 L 15.105469 -28.097656 L 20.460938 -12.140625 Z M 9.746094 -12.140625 "/></g></g></g><g fill="#e5e7eb" fill-opacity="1"><g transform="translate(225.489203, 289.057074)"><g/></g></g><g fill="#e5e7eb" fill-opacity="1"><g transform="translate(243.773198, 289.057074)"><g><path d="M 13.28125 0.457031 C 19.433594 0.457031 24.449219 -3.191406 24.449219 -9.347656 C 24.449219 -21.488281 8.265625 -18.523438 8.265625 -25.535156 C 8.265625 -28.210938 10.375 -29.464844 12.882812 -29.464844 C 15.160156 -29.464844 17.210938 -28.441406 18.75 -26.503906 L 22.683594 -30.09375 C 20.519531 -32.773438 16.925781 -34.652344 12.882812 -34.652344 C 7.523438 -34.652344 2.679688 -31.289062 2.679688 -25.136719 C 2.679688 -13.792969 18.867188 -16.585938 18.867188 -9.347656 C 18.867188 -6.554688 16.527344 -4.902344 13.335938 -4.902344 C 9.859375 -4.902344 7.238281 -6.839844 6.042969 -9.746094 L 1.253906 -6.839844 C 3.25 -2.566406 7.808594 0.457031 13.28125 0.457031 Z M 13.28125 0.457031 "/></g></g></g><g fill="#e5e7eb" fill-opacity="1"><g transform="translate(274.254153, 289.057074)"><g><path d="M 23.765625 -34.195312 L 0.113281 -34.195312 L 0.113281 -29.011719 L 9.175781 -29.011719 L 9.175781 0 L 14.703125 0 L 14.703125 -29.011719 L 23.765625 -29.011719 Z M 23.765625 -34.195312 "/></g></g></g><g fill="#e5e7eb" fill-opacity="1"><g transform="translate(302.74028, 289.057074)"><g><path d="M 24.507812 0 L 30.550781 0 L 18.179688 -34.195312 L 11.96875 -34.195312 L -0.398438 0 L 5.640625 0 L 8.09375 -7.238281 L 22.058594 -7.238281 Z M 9.746094 -12.140625 L 15.105469 -28.097656 L 20.460938 -12.140625 Z M 9.746094 -12.140625 "/></g></g></g><g fill="#e5e7eb" fill-opacity="1"><g transform="translate(337.495865, 289.057074)"><g><path d="M 29.125 -34.195312 L 22.683594 -34.195312 L 14.417969 -21.316406 L 6.210938 -34.195312 L -0.34375 -34.195312 L 11.628906 -16.074219 L 11.628906 0 L 17.210938 0 L 17.210938 -16.1875 Z M 29.125 -34.195312 "/></g></g></g><g fill="#4f46e5" fill-opacity="1"><g transform="translate(26.757948, 316.294988)"><g><path d="M 11.660156 -16.082031 L 11.660156 -9.621094 L 5.121094 -9.621094 L 5.121094 -16.082031 L 1.582031 -16.082031 L 1.582031 0 L 5.121094 0 L 5.121094 -6.488281 L 11.660156 -6.488281 L 11.660156 0 L 15.171875 0 L 15.171875 -16.082031 Z M 11.660156 -16.082031 "/></g></g></g><g fill="#4f46e5" fill-opacity="1"><g transform="translate(46.854169, 316.294988)"><g><path d="M 9.246094 0.214844 C 13.832031 0.214844 17.503906 -3.484375 17.503906 -8.039062 C 17.503906 -12.597656 13.832031 -16.296875 9.246094 -16.296875 C 4.691406 -16.296875 0.992188 -12.597656 0.992188 -8.039062 C 0.992188 -3.484375 4.691406 0.214844 9.246094 0.214844 Z M 9.246094 -3.242188 C 6.539062 -3.242188 4.476562 -5.332031 4.476562 -8.039062 C 4.476562 -10.75 6.539062 -12.839844 9.246094 -12.839844 C 11.980469 -12.839844 14.042969 -10.75 14.042969 -8.039062 C 14.042969 -5.332031 11.980469 -3.242188 9.246094 -3.242188 Z M 9.246094 -3.242188 "/></g></g></g><g fill="#4f46e5" fill-opacity="1"><g transform="translate(68.691871, 316.294988)"><g><path d="M 11.5 -16.082031 L -0.132812 -16.082031 L -0.132812 -12.945312 L 3.941406 -12.945312 L 3.941406 0 L 7.453125 0 L 7.453125 -12.945312 L 11.5 -12.945312 Z M 11.5 -16.082031 "/></g></g></g><g fill="#4f46e5" fill-opacity="1"><g transform="translate(83.376102, 316.294988)"><g><path d="M 11.390625 -12.972656 L 11.390625 -16.082031 L 1.714844 -16.082031 L 1.714844 0 L 11.390625 0 L 11.390625 -3.109375 L 5.253906 -3.109375 L 5.253906 -6.488281 L 10.507812 -6.488281 L 10.507812 -9.59375 L 5.253906 -9.59375 L 5.253906 -12.972656 Z M 11.390625 -12.972656 "/></g></g></g><g fill="#4f46e5" fill-opacity="1"><g transform="translate(99.185593, 316.294988)"><g><path d="M 5.121094 -3.136719 L 5.121094 -16.082031 L 1.582031 -16.082031 L 1.582031 0 L 10.453125 0 L 10.453125 -3.136719 Z M 5.121094 -3.136719 "/></g></g></g><g fill="#4f46e5" fill-opacity="1"><g transform="translate(113.012475, 316.294988)"><g/></g></g><g fill="#4f46e5" fill-opacity="1"><g transform="translate(122.766972, 316.294988)"><g><path d="M 15.597656 -16.082031 L 10.480469 -4.957031 L 5.414062 -16.082031 L 1.582031 -16.082031 L 1.582031 0 L 5.121094 0 L 5.121094 -9.59375 L 9.460938 0 L 11.5 0 L 15.867188 -9.570312 L 15.867188 0 L 19.40625 0 L 19.40625 -16.082031 Z M 15.597656 -16.082031 "/></g></g></g><g fill="#4f46e5" fill-opacity="1"><g transform="translate(147.06954, 316.294988)"><g><path d="M 11.417969 0 L 15.199219 0 L 9.40625 -16.082031 L 5.441406 -16.082031 L -0.347656 0 L 3.429688 0 L 4.421875 -3.027344 L 10.425781 -3.027344 Z M 5.359375 -5.976562 L 7.425781 -12.355469 L 9.488281 -5.976562 Z M 5.359375 -5.976562 "/></g></g></g><g fill="#4f46e5" fill-opacity="1"><g transform="translate(165.236738, 316.294988)"><g><path d="M 13.132812 -16.082031 L 13.132812 -5.441406 L 5.226562 -16.082031 L 1.582031 -16.082031 L 1.582031 0 L 5.121094 0 L 5.121094 -10.667969 L 13 0 L 16.644531 0 L 16.644531 -16.082031 Z M 13.132812 -16.082031 "/></g></g></g><g fill="#4f46e5" fill-opacity="1"><g transform="translate(186.806526, 316.294988)"><g><path d="M 11.417969 0 L 15.199219 0 L 9.40625 -16.082031 L 5.441406 -16.082031 L -0.347656 0 L 3.429688 0 L 4.421875 -3.027344 L 10.425781 -3.027344 Z M 5.359375 -5.976562 L 7.425781 -12.355469 L 9.488281 -5.976562 Z M 5.359375 -5.976562 "/></g></g></g><g fill="#4f46e5" fill-opacity="1"><g transform="translate(204.973723, 316.294988)"><g><path d="M 9.246094 -8.816406 L 9.246094 -6.058594 L 13.667969 -6.058594 C 12.917969 -4.367188 11.257812 -3.242188 9.273438 -3.242188 C 6.566406 -3.242188 4.476562 -5.332031 4.476562 -8.039062 C 4.476562 -10.75 6.566406 -12.839844 9.273438 -12.839844 C 11.175781 -12.839844 12.730469 -11.820312 13.535156 -10.292969 L 16.589844 -11.875 C 15.199219 -14.5 12.4375 -16.296875 9.273438 -16.296875 C 4.691406 -16.296875 1.019531 -12.597656 1.019531 -8.039062 C 1.019531 -3.484375 4.691406 0.214844 9.273438 0.214844 C 13.832031 0.214844 17.527344 -3.484375 17.527344 -8.039062 L 17.527344 -8.816406 Z M 9.246094 -8.816406 "/></g></g></g><g fill="#4f46e5" fill-opacity="1"><g transform="translate(226.83822, 316.294988)"><g><path d="M 1.714844 0 L 5.253906 0 L 5.253906 -16.082031 L 1.714844 -16.082031 Z M 1.714844 0 "/></g></g></g><g fill="#4f46e5" fill-opacity="1"><g transform="translate(237.101761, 316.294988)"><g><path d="M 13.132812 -16.082031 L 13.132812 -5.441406 L 5.226562 -16.082031 L 1.582031 -16.082031 L 1.582031 0 L 5.121094 0 L 5.121094 -10.667969 L 13 0 L 16.644531 0 L 16.644531 -16.082031 Z M 13.132812 -16.082031 "/></g></g></g><g fill="#4f46e5" fill-opacity="1"><g transform="translate(258.671539, 316.294988)"><g><path d="M 9.246094 -8.816406 L 9.246094 -6.058594 L 13.667969 -6.058594 C 12.917969 -4.367188 11.257812 -3.242188 9.273438 -3.242188 C 6.566406 -3.242188 4.476562 -5.332031 4.476562 -8.039062 C 4.476562 -10.75 6.566406 -12.839844 9.273438 -12.839844 C 11.175781 -12.839844 12.730469 -11.820312 13.535156 -10.292969 L 16.589844 -11.875 C 15.199219 -14.5 12.4375 -16.296875 9.273438 -16.296875 C 4.691406 -16.296875 1.019531 -12.597656 1.019531 -8.039062 C 1.019531 -3.484375 4.691406 0.214844 9.273438 0.214844 C 13.832031 0.214844 17.527344 -3.484375 17.527344 -8.039062 L 17.527344 -8.816406 Z M 9.246094 -8.816406 "/></g></g></g><g fill="#4f46e5" fill-opacity="1"><g transform="translate(280.536046, 316.294988)"><g/></g></g><g fill="#4f46e5" fill-opacity="1"><g transform="translate(290.290532, 316.294988)"><g><path d="M 11.5 -16.082031 L -0.132812 -16.082031 L -0.132812 -12.945312 L 3.941406 -12.945312 L 3.941406 0 L 7.453125 0 L 7.453125 -12.945312 L 11.5 -12.945312 Z M 11.5 -16.082031 "/></g></g></g><g fill="#4f46e5" fill-opacity="1"><g transform="translate(304.974765, 316.294988)"><g><path d="M 9.246094 0.214844 C 13.832031 0.214844 17.503906 -3.484375 17.503906 -8.039062 C 17.503906 -12.597656 13.832031 -16.296875 9.246094 -16.296875 C 4.691406 -16.296875 0.992188 -12.597656 0.992188 -8.039062 C 0.992188 -3.484375 4.691406 0.214844 9.246094 0.214844 Z M 9.246094 -3.242188 C 6.539062 -3.242188 4.476562 -5.332031 4.476562 -8.039062 C 4.476562 -10.75 6.539062 -12.839844 9.246094 -12.839844 C 11.980469 -12.839844 14.042969 -10.75 14.042969 -8.039062 C 14.042969 -5.332031 11.980469 -3.242188 9.246094 -3.242188 Z M 9.246094 -3.242188 "/></g></g></g><g fill="#4f46e5" fill-opacity="1"><g transform="translate(326.812471, 316.294988)"><g><path d="M 9.246094 0.214844 C 13.832031 0.214844 17.503906 -3.484375 17.503906 -8.039062 C 17.503906 -12.597656 13.832031 -16.296875 9.246094 -16.296875 C 4.691406 -16.296875 0.992188 -12.597656 0.992188 -8.039062 C 0.992188 -3.484375 4.691406 0.214844 9.246094 0.214844 Z M 9.246094 -3.242188 C 6.539062 -3.242188 4.476562 -5.332031 4.476562 -8.039062 C 4.476562 -10.75 6.539062 -12.839844 9.246094 -12.839844 C 11.980469 -12.839844 14.042969 -10.75 14.042969 -8.039062 C 14.042969 -5.332031 11.980469 -3.242188 9.246094 -3.242188 Z M 9.246094 -3.242188 "/></g></g></g><g fill="#4f46e5" fill-opacity="1"><g transform="translate(348.650177, 316.294988)"><g><path d="M 5.121094 -3.136719 L 5.121094 -16.082031 L 1.582031 -16.082031 L 1.582031 0 L 10.453125 0 L 10.453125 -3.136719 Z M 5.121094 -3.136719 "/></g></g></g></svg>